<svg width="156" height="26" fill="none" xmlns="http://www.w3.org/2000/svg"><path d="M44.994 6.454h3.87l-3.762 4.194a2.55 2.55 0 0 1 .522-.126c.192-.024.402-.036.63-.036.636 0 1.248.162 1.836.486.6.324 1.092.792 1.476 1.404.396.612.594 1.344.594 2.196 0 1.032-.234 1.902-.702 2.61a4.341 4.341 0 0 1-1.854 1.584c-.768.348-1.626.522-2.574.522-.936 0-1.794-.174-2.574-.522a4.462 4.462 0 0 1-1.872-1.584c-.456-.708-.684-1.578-.684-2.61 0-.684.144-1.314.432-1.89a8.878 8.878 0 0 1 1.044-1.62l3.618-4.608Zm-2.088 8.118c0 .636.204 1.152.612 1.548.408.384.912.576 1.512.576s1.098-.192 1.494-.576c.408-.396.612-.912.612-1.548s-.204-1.152-.612-1.548c-.396-.396-.894-.594-1.494-.594s-1.104.198-1.512.594c-.408.396-.612.912-.612 1.548Zm15.75 0c.383.684.834 1.23 1.35 1.638.527.396 1.11.594 1.745.594.457 0 .823-.108 1.099-.324a1.11 1.11 0 0 0 .431-.918c0-.312-.084-.57-.252-.774-.168-.204-.438-.396-.81-.576-.36-.18-.846-.384-1.458-.612-.312-.12-.66-.276-1.044-.468a5.792 5.792 0 0 1-1.115-.738 3.73 3.73 0 0 1-.864-1.098c-.228-.444-.343-.972-.343-1.584 0-.756.192-1.398.576-1.926.397-.54.925-.954 1.585-1.242.672-.288 1.416-.432 2.232-.432.852 0 1.584.138 2.196.414a4.927 4.927 0 0 1 1.53 1.044c.407.42.72.846.936 1.278l-2.323 1.296a3.453 3.453 0 0 0-.99-1.08 2.195 2.195 0 0 0-1.313-.414c-.432 0-.762.096-.99.288a.852.852 0 0 0-.325.684c0 .432.24.786.72 1.062.492.264 1.177.552 2.053.864.588.204 1.121.48 1.602.828.492.336.882.756 1.17 1.26.3.492.45 1.086.45 1.782 0 .852-.223 1.578-.666 2.178a4.265 4.265 0 0 1-1.746 1.35c-.709.3-1.459.45-2.25.45a6.008 6.008 0 0 1-2.286-.432 6.36 6.36 0 0 1-1.837-1.188 5.486 5.486 0 0 1-1.188-1.674l2.125-1.53Zm12.206 1.188c0 .48.084.852.252 1.116.18.264.492.396.935.396.432 0 .78-.132 1.044-.396s.397-.636.397-1.116v-5.04h2.736V19H73.49v-1.242a2.81 2.81 0 0 1-.99 1.062c-.409.252-.918.378-1.53.378-1.02 0-1.77-.276-2.25-.828-.48-.564-.72-1.338-.72-2.322V10.72h2.862v5.04Zm6.935 3.834h2.646c.048.516.24.9.576 1.152.336.252.768.378 1.296.378.576 0 1.062-.192 1.458-.576.408-.384.612-.96.612-1.728v-1.296c-.66.96-1.608 1.44-2.844 1.44a4.078 4.078 0 0 1-1.908-.468c-.6-.312-1.086-.78-1.458-1.404-.372-.636-.558-1.416-.558-2.34 0-.936.186-1.716.558-2.34.372-.624.858-1.092 1.458-1.404a4.078 4.078 0 0 1 1.908-.468c1.236 0 2.184.48 2.844 1.44v-1.26h2.61v8.1c0 1.068-.204 1.932-.612 2.592-.408.66-.96 1.14-1.656 1.44-.684.3-1.446.45-2.286.45-1.032 0-1.878-.156-2.538-.468-.66-.312-1.158-.75-1.494-1.314-.336-.552-.54-1.194-.612-1.926Zm2.682-4.842c0 .648.192 1.146.576 1.494.396.348.864.522 1.404.522.312 0 .612-.072.9-.216.3-.156.546-.384.738-.684.192-.3.288-.672.288-1.116 0-.456-.096-.828-.288-1.116a1.785 1.785 0 0 0-.738-.666 1.865 1.865 0 0 0-.9-.234c-.54 0-1.008.174-1.404.522-.384.348-.576.846-.576 1.494Zm8.054 4.842h2.646c.048.516.24.9.576 1.152.336.252.768.378 1.296.378.576 0 1.062-.192 1.458-.576.408-.384.612-.96.612-1.728v-1.296c-.66.96-1.608 1.44-2.844 1.44a4.078 4.078 0 0 1-1.908-.468c-.6-.312-1.086-.78-1.458-1.404-.372-.636-.558-1.416-.558-2.34 0-.936.186-1.716.558-2.34.372-.624.858-1.092 1.458-1.404a4.078 4.078 0 0 1 1.908-.468c1.236 0 2.184.48 2.844 1.44v-1.26h2.61v8.1c0 1.068-.204 1.932-.612 2.592-.408.66-.96 1.14-1.656 1.44-.684.3-1.446.45-2.286.45-1.032 0-1.878-.156-2.538-.468-.66-.312-1.158-.75-1.494-1.314-.336-.552-.54-1.194-.612-1.926Zm2.682-4.842c0 .648.192 1.146.576 1.494.396.348.864.522 1.404.522.312 0 .612-.072.9-.216.3-.156.546-.384.738-.684.192-.3.288-.672.288-1.116 0-.456-.096-.828-.288-1.116a1.785 1.785 0 0 0-.738-.666 1.865 1.865 0 0 0-.9-.234c-.54 0-1.008.174-1.404.522-.384.348-.576.846-.576 1.494Zm12.591 4.428c-.972 0-1.812-.174-2.52-.522a3.947 3.947 0 0 1-1.62-1.512c-.384-.648-.576-1.41-.576-2.286 0-1.344.414-2.4 1.242-3.168.828-.768 1.968-1.152 3.42-1.152 1.428 0 2.526.366 3.294 1.098.78.732 1.17 1.764 1.17 3.096v.378c0 .12-.006.228-.018.324h-6.318c.072.564.27 1.002.594 1.314.324.312.75.468 1.278.468.96 0 1.644-.36 2.052-1.08l2.448.594c-.876 1.632-2.358 2.448-4.446 2.448Zm-.108-6.822c-.984 0-1.578.522-1.782 1.566h3.384c-.048-.48-.216-.858-.504-1.134-.276-.288-.642-.432-1.098-.432Zm6.396 3.636c.636.528 1.176.888 1.62 1.08.456.18.828.27 1.116.27.54 0 .81-.216.81-.648 0-.264-.126-.474-.378-.63-.252-.168-.714-.36-1.386-.576a6.634 6.634 0 0 1-1.116-.504 2.598 2.598 0 0 1-.882-.81c-.228-.336-.342-.768-.342-1.296 0-.756.294-1.332.882-1.728.588-.408 1.326-.612 2.214-.612.708 0 1.356.12 1.944.36a7.067 7.067 0 0 1 1.602.864l-.972 1.782a4.422 4.422 0 0 0-1.188-.81c-.444-.216-.852-.324-1.224-.324-.24 0-.426.048-.558.144a.46.46 0 0 0-.18.378c0 .276.162.48.486.612l1.422.558c.432.156.828.336 1.188.54.36.204.648.462.864.774.228.312.342.726.342 1.242 0 .876-.27 1.542-.81 1.998-.54.456-1.308.684-2.304.684-.9 0-1.698-.144-2.394-.432a8.437 8.437 0 0 1-1.89-1.116l1.134-1.8Zm6.537-5.274h1.458V7.84h2.628v2.88h1.458v2.25h-1.458V19h-2.628v-6.03h-1.458v-2.25Zm6.29-3.096c0-.432.15-.786.45-1.062.312-.276.69-.414 1.134-.414.444 0 .816.138 1.116.414.312.276.468.63.468 1.062 0 .432-.156.786-.468 1.062-.3.264-.672.396-1.116.396-.444 0-.822-.132-1.134-.396-.3-.276-.45-.63-.45-1.062Zm.252 3.096h2.646V19h-2.646v-8.28Zm4.149 4.14c0-.876.204-1.638.612-2.286a4.297 4.297 0 0 1 1.692-1.512c.72-.36 1.53-.54 2.43-.54.912 0 1.722.18 2.43.54.708.36 1.266.864 1.674 1.512.42.648.63 1.41.63 2.286 0 .864-.21 1.62-.63 2.268a4.166 4.166 0 0 1-1.674 1.512c-.708.36-1.518.54-2.43.54-.9 0-1.71-.18-2.43-.54a4.297 4.297 0 0 1-1.692-1.512c-.408-.648-.612-1.404-.612-2.268Zm2.808 0c0 .636.186 1.14.558 1.512a1.9 1.9 0 0 0 1.368.558c.528 0 .978-.186 1.35-.558.384-.372.576-.876.576-1.512s-.192-1.14-.576-1.512a1.81 1.81 0 0 0-1.35-.576c-.528 0-.984.192-1.368.576-.372.372-.558.876-.558 1.512Zm13.41-.9c0-.492-.09-.864-.27-1.116-.18-.264-.492-.396-.936-.396-.432 0-.78.132-1.044.396-.264.252-.396.624-.396 1.116V19h-2.736v-8.28h2.736v1.242c.24-.456.564-.81.972-1.062.42-.252.936-.378 1.548-.378 1.032 0 1.782.276 2.25.828.48.552.72 1.326.72 2.322V19h-2.844v-5.04Zm5.171 2.034c.636.528 1.176.888 1.62 1.08.456.18.828.27 1.116.27.54 0 .81-.216.81-.648 0-.264-.126-.474-.378-.63-.252-.168-.714-.36-1.386-.576a6.634 6.634 0 0 1-1.116-.504 2.598 2.598 0 0 1-.882-.81c-.228-.336-.342-.768-.342-1.296 0-.756.294-1.332.882-1.728.588-.408 1.326-.612 2.214-.612.708 0 1.356.12 1.944.36a7.067 7.067 0 0 1 1.602.864l-.972 1.782a4.422 4.422 0 0 0-1.188-.81c-.444-.216-.852-.324-1.224-.324-.24 0-.426.048-.558.144a.46.46 0 0 0-.18.378c0 .276.162.48.486.612l1.422.558c.432.156.828.336 1.188.54.36.204.648.462.864.774.228.312.342.726.342 1.242 0 .876-.27 1.542-.81 1.998-.54.456-1.308.684-2.304.684-.9 0-1.698-.144-2.394-.432a8.437 8.437 0 0 1-1.89-1.116l1.134-1.8Z" fill="#fff"/><g clip-path="url(#a)"><path d="M11.5 3.274c2.237 0 4.339.854 5.924 2.408a8.123 8.123 0 0 1 2.464 5.839 8.084 8.084 0 0 1-1.7 4.979 8.457 8.457 0 0 1-3.652 2.71l-.31.112.003.826h.369c.262 0 .474.21.474.468a.47.47 0 0 1-.389.462l-.085.007h-.365l.004 1.02h.36c.263 0 .476.21.476.469a.47.47 0 0 1-.39.461l-.085.008h-.357l.005 1.486a.465.465 0 0 1-.381.462L13.77 25H9.23a.478.478 0 0 1-.466-.378l-.01-.093.006-1.486h-.357a.472.472 0 0 1-.475-.47.47.47 0 0 1 .39-.46l.085-.008h.361l.004-1.02h-.365a.472.472 0 0 1-.475-.469.47.47 0 0 1 .39-.46l.085-.008h.368l.004-.826a8.452 8.452 0 0 1-3.996-2.867 8.08 8.08 0 0 1-1.666-5.056c.032-2.127.923-4.152 2.511-5.7 1.508-1.471 3.448-2.322 5.493-2.416l.324-.009h.06Zm1.791 19.769H9.709l-.004 1.02h3.59l-.004-1.02Zm-.008-1.958H9.716l-.003 1.02h3.574l-.004-1.02ZM11.5 4.212h-.054c-3.946.027-7.327 3.325-7.384 7.2-.048 3.266 2.14 6.192 5.322 7.118.174.05.3.193.332.364l.008.088-.004 1.166h3.56l-.004-1.166a.47.47 0 0 1 .34-.452c3.134-.912 5.323-3.794 5.323-7.01a7.197 7.197 0 0 0-2.185-5.173A7.453 7.453 0 0 0 11.5 4.212Zm.829 1.782a.4.4 0 0 1 .401.397v.322c.48.12.932.307 1.346.552l.228-.226a.405.405 0 0 1 .569 0L16.046 8.2a.393.393 0 0 1 0 .56l-.23.228c.247.41.437.858.557 1.333h.323a.4.4 0 0 1 .402.397v1.645a.4.4 0 0 1-.401.396h-.324c-.12.476-.31.924-.557 1.333l.23.228a.393.393 0 0 1 0 .56l-1.173 1.163a.405.405 0 0 1-.57 0l-.227-.227a5.022 5.022 0 0 1-1.346.553v.322a.4.4 0 0 1-.401.396H10.67a.4.4 0 0 1-.401-.396v-.322a5.022 5.022 0 0 1-1.346-.553l-.228.227a.405.405 0 0 1-.569 0L6.954 14.88a.393.393 0 0 1 0-.56l.23-.228a4.924 4.924 0 0 1-.557-1.332h-.324a.4.4 0 0 1-.401-.397v-1.645a.4.4 0 0 1 .401-.397h.324c.12-.475.31-.923.557-1.333l-.23-.228a.393.393 0 0 1 0-.56L8.127 7.04a.405.405 0 0 1 .569 0l.228.226a5.02 5.02 0 0 1 1.346-.552V6.39a.4.4 0 0 1 .401-.397h1.658ZM11.5 8.721c-1.572 0-2.846 1.263-2.846 2.82 0 1.558 1.274 2.82 2.846 2.82s2.846-1.262 2.846-2.82c0-1.557-1.274-2.82-2.846-2.82Zm11.025 4.152c.263 0 .475.21.475.469a.47.47 0 0 1-.39.461l-.085.008h-.498a.472.472 0 0 1-.475-.469.47.47 0 0 1 .39-.461l.085-.008h.498Zm-21.552 0c.262 0 .475.21.475.469a.47.47 0 0 1-.39.461l-.085.008H.475A.472.472 0 0 1 0 13.342a.47.47 0 0 1 .39-.461l.085-.008h.498ZM3.112 4.45l.074.06.46.451c.185.183.186.48 0 .663a.476.476 0 0 1-.596.062l-.075-.06-.459-.451a.465.465 0 0 1-.001-.663.48.48 0 0 1 .597-.062Zm17.373.062c.162.16.182.408.06.59l-.061.073-.46.45a.477.477 0 0 1-.67 0 .464.464 0 0 1-.06-.59l.06-.074.46-.45a.48.48 0 0 1 .671 0ZM11.5 1c.233 0 .427.166.467.384l.008.085v.49a.472.472 0 0 1-.475.468.473.473 0 0 1-.467-.384l-.008-.084v-.49c0-.26.213-.469.475-.469Z" fill="#fff"/></g><defs><clipPath id="a"><path fill="#fff" transform="translate(0 1)" d="M0 0h23v24H0z"/></clipPath></defs></svg>